<svg width="24" height="24" viewBox="0 0 24 24" fill="none" xmlns="http://www.w3.org/2000/svg">
<path d="M12 10.5268H21.7098C21.817 11.125 21.8705 11.6964 21.8705 12.2411C21.8705 14.1786 21.4643 15.9085 20.6518 17.4308C19.8393 18.9531 18.6808 20.1429 17.1763 21C15.6719 21.8571 13.9464 22.2857 12 22.2857C10.5982 22.2857 9.26339 22.0156 7.99554 21.4754C6.72768 20.9353 5.63393 20.2054 4.71429 19.2857C3.79464 18.3661 3.06473 17.2723 2.52455 16.0045C1.98438 14.7366 1.71429 13.4018 1.71429 12C1.71429 10.5982 1.98438 9.26339 2.52455 7.99553C3.06473 6.72768 3.79464 5.63393 4.71429 4.71428C5.63393 3.79464 6.72768 3.06473 7.99554 2.52455C9.26339 1.98437 10.5982 1.71428 12 1.71428C14.6786 1.71428 16.9777 2.61161 18.8973 4.40625L16.0982 7.09821C15 6.03571 13.6339 5.50446 12 5.50446C10.8482 5.50446 9.78348 5.79464 8.8058 6.375C7.82813 6.95536 7.05357 7.7433 6.48214 8.73884C5.91072 9.73437 5.625 10.8214 5.625 12C5.625 13.1786 5.91072 14.2656 6.48214 15.2612C7.05357 16.2567 7.82813 17.0446 8.8058 17.625C9.78348 18.2054 10.8482 18.4955 12 18.4955C12.7768 18.4955 13.4911 18.3884 14.1429 18.1741C14.7946 17.9598 15.3304 17.692 15.75 17.3705C16.1696 17.0491 16.5357 16.683 16.8482 16.2723C17.1607 15.8616 17.3906 15.4732 17.5379 15.1071C17.6853 14.7411 17.7857 14.3929 17.8393 14.0625H12V10.5268Z" fill="black"/>
</svg>
