<svg width="24" height="24" viewBox="0 0 24 24" fill="none" xmlns="http://www.w3.org/2000/svg">
<path d="M12 2C7.2054 2 3 5.88431 3 10.3125C3 13.9231 5.3388 16.8544 9 17.8953V20.4062C9 20.6123 9.108 20.8029 9.2844 20.9115C9.381 20.9703 9.4902 21 9.6 21C9.6918 21 9.7836 20.9792 9.8682 20.9377L15.9084 17.9469C19.4298 15.8558 21 13.5015 21 10.3125C21 5.88431 16.7946 2 12 2ZM15.3318 16.9061L10.2 19.4456V17.4375C10.2 17.1626 10.0086 16.9233 9.738 16.8598C6.3738 16.0719 4.2 13.5021 4.2 10.3125C4.2 6.51666 7.845 3.1875 12 3.1875C16.155 3.1875 19.8 6.51666 19.8 10.3125C19.8 13.0734 18.4512 15.0518 15.3318 16.9061Z" fill="black"/>
<path d="M13.2 10.1326L11.8992 8.20172C11.7522 7.98381 11.4792 7.88703 11.226 7.96303C10.9734 8.03844 10.8 8.27 10.8 8.53125V12.6875H12V10.4924L13.3008 12.4233C13.4142 12.5913 13.6032 12.6875 13.8 12.6875C13.8582 12.6875 13.9164 12.6792 13.974 12.662C14.2266 12.5866 14.4 12.355 14.4 12.0938V7.9375H13.2V10.1326ZM18 9.125V7.9375H15.6C15.2688 7.9375 15 8.2035 15 8.53125V12.0938C15 12.4215 15.2688 12.6875 15.6 12.6875H18V11.5H16.2V10.9062H18V9.71875H16.2V9.125H18ZM7.2 7.9375H6V12.0938C6 12.4215 6.2688 12.6875 6.6 12.6875H8.4V11.5H7.2V7.9375Z" fill="black"/>
<path d="M10.2 7.9375H9V12.6875H10.2V7.9375Z" fill="black"/>
</svg>
