<svg width="24" height="24" viewBox="0 0 24 24" fill="none" xmlns="http://www.w3.org/2000/svg">
<path d="M4 9.17845C4 8.33863 4.17054 7.50481 4.51357 6.67899C4.85659 5.85317 5.3469 5.08533 5.98643 4.37949C6.62597 3.67364 7.46512 3.09976 8.50581 2.65986C9.54651 2.21995 10.6996 2 11.9651 2C14.0194 2 15.7054 2.65386 17.0233 3.95958C18.3411 5.26529 19 6.80496 19 8.57858C19 10.8581 18.4419 12.7417 17.3236 14.2274C16.2054 15.713 14.7616 16.4569 12.9922 16.4569C12.4109 16.4569 11.8643 16.3169 11.3547 16.037C10.845 15.757 10.4864 15.4171 10.2791 15.0172L9.50388 18.1765C9.43992 18.4304 9.35465 18.6864 9.25194 18.9463C9.14922 19.2063 9.03488 19.4562 8.91279 19.6962C8.7907 19.9361 8.66667 20.1621 8.54457 20.376C8.42248 20.59 8.29845 20.7899 8.17636 20.9759C8.05426 21.1619 7.94767 21.3198 7.85659 21.4458C7.7655 21.5718 7.68217 21.6817 7.60465 21.7757L7.48837 21.9357C7.44961 21.9897 7.39729 22.0097 7.33333 21.9957C7.26938 21.9817 7.23062 21.9417 7.21705 21.8757C7.21705 21.8617 7.20736 21.7697 7.18798 21.5958C7.1686 21.4218 7.14922 21.2398 7.12984 21.0459C7.11047 20.8519 7.09109 20.602 7.07171 20.296C7.05233 19.9901 7.04651 19.6922 7.05233 19.4062C7.05814 19.1203 7.07752 18.8024 7.11047 18.4564C7.14341 18.1105 7.19186 17.7906 7.25581 17.4966C7.39729 16.8708 7.87597 14.7832 8.68992 11.238C8.58721 11.024 8.50194 10.7681 8.43798 10.4682C8.37403 10.1682 8.34109 9.92429 8.34109 9.73833L8.32171 9.43839C8.32171 8.58458 8.53101 7.87473 8.95155 7.30885C9.37209 6.74297 9.87791 6.45904 10.4729 6.45904C10.9516 6.45904 11.3217 6.623 11.5872 6.94893C11.8527 7.27486 11.9845 7.68477 11.9845 8.17866C11.9845 8.4846 11.9302 8.86252 11.8198 9.30842C11.7093 9.75432 11.564 10.2682 11.3837 10.8481C11.2035 11.428 11.0736 11.8979 10.9961 12.2578C10.8663 12.8577 10.9806 13.3775 11.3353 13.8174C11.6899 14.2573 12.1647 14.4773 12.7597 14.4773C13.781 14.4773 14.624 13.8814 15.2888 12.6877C15.9535 11.4939 16.2868 10.0523 16.2868 8.35862C16.2868 7.0649 15.8798 6.00913 15.0659 5.18931C14.2519 4.36949 13.1143 3.95958 11.655 3.95958C10.0271 3.95958 8.70543 4.49946 7.69186 5.57923C6.67829 6.65899 6.17054 7.95271 6.17054 9.45839C6.17054 10.3522 6.41667 11.104 6.90698 11.7179C7.07558 11.9179 7.12597 12.1318 7.06202 12.3578C7.03682 12.4237 6.99806 12.5777 6.94574 12.8177C6.89341 13.0576 6.85465 13.2116 6.82946 13.2776C6.80426 13.4235 6.73837 13.5215 6.63566 13.5675C6.53295 13.6135 6.41667 13.6115 6.28682 13.5575C5.52519 13.2376 4.95349 12.6877 4.57171 11.9079C4.18992 11.128 4 10.2182 4 9.17845Z" fill="black"/>
</svg>
