<svg width="24" height="24" viewBox="0 0 24 24" fill="none" xmlns="http://www.w3.org/2000/svg">
<path d="M21.7975 16.9872C18.9313 16.515 17.6466 13.5857 17.5935 13.4613L17.5881 13.4496C17.5067 13.3165 17.4553 13.1671 17.4377 13.0121C17.42 12.8571 17.4365 12.7 17.4859 12.552C17.6784 12.0984 18.3152 11.8963 18.7372 11.7623C18.8426 11.7289 18.9422 11.6973 19.0204 11.6663C19.7831 11.3651 19.9382 11.0532 19.9344 10.8444C19.9144 10.7142 19.856 10.593 19.7667 10.4962C19.6774 10.3993 19.5612 10.3313 19.4331 10.3008L19.4274 10.2987C19.3141 10.2532 19.1931 10.23 19.0711 10.2305C18.9636 10.2286 18.8569 10.2498 18.7582 10.2926C18.4604 10.4432 18.1358 10.5336 17.803 10.5587C17.6112 10.5632 17.4238 10.5005 17.2734 10.3814C17.2826 10.2115 17.2934 10.0362 17.3052 9.85096L17.3092 9.78566C17.5015 8.43833 17.4196 7.06604 17.0683 5.75117C16.6542 4.80711 15.9711 4.00593 15.1045 3.44762C14.2379 2.88931 13.226 2.5986 12.1952 2.61177C12.0611 2.61317 11.927 2.61443 11.7928 2.61555C10.7635 2.60283 9.75319 2.89361 8.88811 3.45158C8.02302 4.00954 7.34147 4.80997 6.92853 5.75293C6.57729 7.06663 6.49522 8.43778 6.68726 9.784C6.7002 9.98315 6.7122 10.1824 6.72326 10.3817C6.55754 10.5116 6.34945 10.5752 6.13946 10.5601C5.78611 10.545 5.4402 10.4537 5.12546 10.2924C5.04827 10.2583 4.96452 10.2415 4.88016 10.2434C4.70637 10.2366 4.53479 10.2842 4.38944 10.3798C4.24409 10.4753 4.13224 10.6138 4.06955 10.7761C3.98764 11.2067 4.60245 11.5186 4.97623 11.6663C5.05523 11.6976 5.15445 11.7291 5.25931 11.7623C5.681 11.8961 6.31839 12.0983 6.51083 12.5521C6.56019 12.7002 6.57662 12.8572 6.55897 13.0123C6.54131 13.1674 6.48999 13.3168 6.4086 13.4499L6.40323 13.4615C6.12691 14.0631 5.76697 14.6227 5.33408 15.1236C4.54753 16.1019 3.43447 16.7637 2.19925 16.9875C2.14087 16.9971 2.08812 17.0279 2.05111 17.0741C2.01411 17.1203 1.99548 17.1785 1.99881 17.2375C2.00143 17.2822 2.01193 17.3261 2.02981 17.3672C2.20559 17.7783 3.08803 18.1178 4.58163 18.3482C4.72127 18.3698 4.78036 18.5975 4.8619 18.9704C4.89449 19.1197 4.92824 19.2746 4.9753 19.4346C4.99066 19.5055 5.03184 19.5682 5.09083 19.6105C5.14982 19.6528 5.22241 19.6716 5.29452 19.6634C5.43765 19.6554 5.57982 19.635 5.71944 19.6025C6.08759 19.5221 6.463 19.4797 6.8398 19.4757C7.11048 19.4763 7.38065 19.4992 7.6476 19.544C8.21162 19.6869 8.73625 19.9549 9.1826 20.3282C9.93591 20.9715 10.8826 21.3446 11.8723 21.3882C11.906 21.3882 11.9397 21.387 11.9724 21.3842C12.0135 21.3862 12.0676 21.3882 12.1243 21.3882C13.1145 21.3444 14.0617 20.971 14.8155 20.3274C15.2614 19.9545 15.7856 19.6868 16.349 19.5441C16.6161 19.4994 16.8863 19.4765 17.157 19.4758C17.5335 19.4776 17.9089 19.5173 18.2774 19.5945C18.4172 19.6251 18.5594 19.6431 18.7024 19.6482H18.7258C18.7935 19.6537 18.8609 19.6342 18.9153 19.5935C18.9697 19.5529 19.0074 19.4937 19.0213 19.4272C19.0677 19.2694 19.1017 19.1192 19.1351 18.9659C19.216 18.5949 19.275 18.3683 19.4152 18.3467C20.9092 18.1159 21.7916 17.7769 21.9662 17.3681C21.9844 17.3267 21.9952 17.2824 21.998 17.2372C22.0012 17.1782 21.9826 17.12 21.9456 17.0738C21.9086 17.0277 21.8559 16.9968 21.7975 16.9872Z" fill="black"/>
</svg>
