<svg width="24" height="24" viewBox="0 0 24 24" fill="none" xmlns="http://www.w3.org/2000/svg">
<path d="M12 2C6.48625 2 2 6.48625 2 12C2 17.5138 6.48625 22 12 22C17.5138 22 22 17.5138 22 12C22 6.48625 17.5138 2 12 2ZM16.5875 16.435C16.5405 16.5022 16.4806 16.5595 16.4114 16.6036C16.3422 16.6476 16.265 16.6776 16.1841 16.6918C16.1033 16.7059 16.0205 16.704 15.9404 16.6861C15.8604 16.6682 15.7846 16.6347 15.7175 16.5875C13.3737 14.94 9.475 14.8488 6.8425 15.4625C6.76248 15.481 6.67958 15.4837 6.59855 15.4702C6.51752 15.4567 6.43994 15.4274 6.37024 15.3839C6.30053 15.3404 6.24008 15.2837 6.19232 15.2168C6.14455 15.15 6.11042 15.0744 6.09188 14.9944C6.07333 14.9144 6.07072 14.8315 6.08421 14.7504C6.09769 14.6694 6.12701 14.5918 6.17048 14.5221C6.21395 14.4524 6.27072 14.392 6.33755 14.3442C6.40439 14.2964 6.47998 14.2623 6.56 14.2437C9.45375 13.5738 13.7788 13.6962 16.435 15.565C16.5705 15.6602 16.6627 15.8053 16.6913 15.9684C16.7198 16.1316 16.6825 16.2994 16.5875 16.435ZM17.8075 13.9963C17.7596 14.0629 17.699 14.1195 17.6292 14.1627C17.5594 14.206 17.4818 14.235 17.4008 14.2483C17.3197 14.2615 17.2369 14.2586 17.157 14.2398C17.0771 14.221 17.0016 14.1867 16.935 14.1388C14.2163 12.1875 10.8763 11.7025 6.41875 12.6125C6.33832 12.629 6.25542 12.6295 6.17479 12.614C6.09417 12.5984 6.01739 12.5671 5.94885 12.5219C5.88031 12.4767 5.82135 12.4185 5.77532 12.3505C5.7293 12.2825 5.69712 12.2061 5.68062 12.1256C5.66413 12.0452 5.66363 11.9623 5.67917 11.8817C5.69471 11.801 5.72598 11.7243 5.77119 11.6557C5.8164 11.5872 5.87467 11.5282 5.94267 11.4822C6.01067 11.4362 6.08707 11.404 6.1675 11.3875C10.9888 10.4038 14.6413 10.9537 17.6637 13.1225C17.7984 13.2195 17.8891 13.3659 17.916 13.5297C17.943 13.6934 17.9039 13.8612 17.8075 13.9963ZM19.04 10.7213C18.9939 10.7893 18.9349 10.8475 18.8662 10.8927C18.7976 10.9378 18.7208 10.969 18.6401 10.9845C18.5594 10.9999 18.4765 10.9993 18.396 10.9827C18.3156 10.966 18.2392 10.9337 18.1712 10.8875C14.725 8.54875 9.48625 8.5375 6.095 9.7375C6.01752 9.76483 5.93542 9.77663 5.85337 9.77223C5.77133 9.76784 5.69096 9.74732 5.61685 9.71186C5.54274 9.6764 5.47633 9.62669 5.42143 9.56557C5.36653 9.50444 5.32421 9.4331 5.29688 9.35563C5.26954 9.27815 5.25774 9.19604 5.26214 9.114C5.26654 9.03196 5.28706 8.95159 5.32252 8.87747C5.35798 8.80336 5.40769 8.73696 5.46881 8.68206C5.52993 8.62716 5.60127 8.58483 5.67875 8.5575C9.3675 7.25375 15.0837 7.28125 18.875 9.8525C19.0116 9.94621 19.1056 10.0901 19.1365 10.2529C19.1674 10.4156 19.1327 10.584 19.04 10.7213Z" fill="black"/>
</svg>
