<svg width="24" height="24" viewBox="0 0 24 24" fill="none" xmlns="http://www.w3.org/2000/svg">
<path d="M9.94466 10.0902C9.97835 10.1442 10.0381 10.1802 10.107 10.1802H10.1085C10.1544 10.1802 10.1958 10.1637 10.2287 10.1375L10.2387 10.127C10.535 9.88396 10.803 9.63497 11.0533 9.36948L11.0587 9.36423C11.9492 8.37503 12.4928 7.06858 12.4928 5.63764C12.4928 4.87267 12.3374 4.1422 12.0556 3.47698L12.0694 3.51448C12.0495 3.47023 12.0372 3.41848 12.0372 3.36448C12.0372 3.24524 12.0946 3.13874 12.1835 3.06975L12.1842 3.069C12.2455 3.0255 12.3213 3 12.404 3C12.5004 3 12.5885 3.036 12.6559 3.0945C20.9825 10.6797 18.7812 16.4574 18.6166 16.8467C17.9504 19.2023 15.2974 20.907 12.1513 20.994C12.0456 21 11.966 21 11.8734 21C8.15836 21 5 18.7583 5 15.895V15.85C5 11.8751 8.67519 7.95879 8.83521 7.7923C8.89723 7.7233 8.98758 7.6798 9.08864 7.6798C9.14301 7.6798 9.19431 7.69255 9.23948 7.7143L9.23718 7.71355C9.36964 7.76905 9.45999 7.89505 9.45999 8.04204V8.05254V8.05179C9.45463 8.12454 9.45157 8.21003 9.45157 8.29553C9.45157 8.95175 9.63456 9.56598 9.95231 10.0925L9.94313 10.076V10.0895L9.94466 10.0902Z" fill="black"/>
</svg>
