<svg width="24" height="24" viewBox="0 0 24 24" fill="none" xmlns="http://www.w3.org/2000/svg">
<g clip-path="url(#clip0_4_86)">
<path d="M0 7.23L0.969 8.5065C0.969 8.5065 2.979 6.921 3.648 7.71C4.326 8.5065 6.8925 18.0705 7.7415 19.839C8.4825 21.3885 10.539 23.433 12.786 21.975C15.054 20.508 22.5405 14.115 23.8815 6.5505C25.2195 -1.0005 14.8575 0.580501 13.7715 7.1625C16.5045 5.5215 17.9775 7.8345 16.5765 10.449C15.1725 13.074 13.884 14.7855 13.2165 14.7855C12.561 14.7855 12.042 13.0245 11.274 9.9675C10.4865 6.801 10.4865 1.092 7.1925 1.74C4.0785 2.355 0 7.23 0 7.23Z" fill="black"/>
</g>
<defs>
<clipPath id="clip0_4_86">
<rect width="24" height="24" fill="white"/>
</clipPath>
</defs>
</svg>
